<?xml version="1.0" standalone="no"?>
<!DOCTYPE svg PUBLIC "-//W3C//DTD SVG 20010904//EN"
 "http://www.w3.org/TR/2001/REC-SVG-20010904/DTD/svg10.dtd">
<svg version="1.0" xmlns="http://www.w3.org/2000/svg"
 width="1235.000000pt" height="1280.000000pt" viewBox="0 0 1235.000000 1280.000000"
 preserveAspectRatio="xMidYMid meet">
<g transform="translate(0.000000,1280.000000) scale(0.100000,-0.100000)"
fill="red" stroke="none">
 <title>system:status: disabled</title>
<path d="M5840 12219 c-1183 -93 -2301 -600 -3153 -1428 -1243 -1208 -1783
-2949 -1446 -4655 182 -921 636 -1800 1285 -2487 1164 -1233 2833 -1805 4507
-1544 1479 230 2788 1111 3572 2404 375 620 612 1322 701 2081 22 185 30 702
15 912 -104 1419 -779 2709 -1887 3604 -804 650 -1783 1036 -2824 1114 -157
12 -617 11 -770 -1z"/>
<path d="M5145 1350 c-258 -10 -678 -34 -860 -51 -368 -33 -852 -97 -975 -130
-19 -5 -73 -18 -120 -29 -179 -41 -339 -112 -372 -165 -39 -62 -5 -116 106
-172 242 -122 913 -242 1666 -297 41 -3 131 -10 200 -15 452 -35 812 -46 1550
-46 668 1 830 4 1280 31 325 19 780 63 1020 99 661 99 942 226 808 365 -40 40
-165 100 -273 130 -456 127 -1157 218 -2010 260 -121 6 -254 13 -295 16 -139
9 -1493 12 -1725 4z"/>
</g>
</svg>
